<svg xmlns="http://www.w3.org/2000/svg" width="300" height="300"><path d="M39.73 33.2h220.53c3.95 0 7.18 3.25 7.18 7.2v168.3c0 3.95-3.22 7.18-7.18 7.18H231.2l-2.4-6.65-.6-1.13 1.65-1.4 8.1-3.82-4.58-6.57h14.52V52.83H52.12v143.5h72.38l-4.54 6.57 8.08 3.8 1.66.8-.62 1.73-2.4 6.66H39.74c-3.95 0-7.18-3.23-7.18-7.2V40.4c0-3.95 3.23-7.2 7.18-7.2zm139.2 105l-5.6 6.67-7.16-4.98-3.7 7.9-8.2-2.97-1.54 8.6-8.68-.74.73 8.7-8.57 1.53 2.96 8.2-7.9 3.73 4.98 7.16-6.65 5.64 6.64 5.63-4.97 7.16 7.88 3.7-2.95 8.23 8.57 1.52-.72 8.7 8.67-.72 1.54 8.58 8.2-2.95 3.7 7.9 7.15-5 5.64 6.67 5.62-6.66 7.15 5 3.72-7.9 8.18 2.94 1.54-8.57 8.68.72-.72-8.7 8.57-1.53-2.95-8.23 7.87-3.7-4.97-7.18 6.64-5.64-6.64-5.64 4.96-7.16-7.88-3.7 2.95-8.23-8.57-1.54.72-8.7-8.67.72-1.55-8.6-8.18 2.97-3.73-7.9-7.14 4.97-5.62-6.67zm29.54 100.68v27.9l-29.52-11-29.12 11v-27.9l7-1.27 1.72-.6.77 1.63 3.84 8.16 7.35-5.14 1.5-1.03 1.16 1.38 5.8 6.88 5.77-6.87 1.18-1.37 1.5 1.03 7.35 5.13 3.83-8.17.77-1.64 1.72.6 7.4 1.28zm-97.62-159.8v13.05h78.3V79.08h-78.3zm-39.15 26v13.05h156.6v-13.05H71.7z"/></svg>